<svg width="48" height="48" viewBox="0 0 48 48" fill="none" xmlns="http://www.w3.org/2000/svg">
<path d="M28.5 39.5C28.5 41.0703 27.3621 42.7916 24.8671 44.2054C22.4169 45.5938 18.9315 46.5 15 46.5C11.0685 46.5 7.58305 45.5938 5.13292 44.2054C2.63794 42.7916 1.5 41.0703 1.5 39.5C1.5 37.9297 2.63794 36.2084 5.13292 34.7946C7.58305 33.4062 11.0685 32.5 15 32.5C18.9315 32.5 22.4169 33.4062 24.8671 34.7946C27.3621 36.2084 28.5 37.9297 28.5 39.5Z" stroke="#152C5B" stroke-width="3"/>
<path d="M27.5 11.8588C27.5 14.8771 25.9993 22.2195 23.496 28.8561C22.2507 32.1576 20.7978 35.1718 19.2343 37.332C17.6105 39.5754 16.1608 40.5 15 40.5C13.8392 40.5 12.3895 39.5754 10.7657 37.332C9.20216 35.1718 7.74932 32.1576 6.50398 28.8561C4.00066 22.2195 2.5 14.8771 2.5 11.8588C2.5 6.36156 7.85339 1.5 15 1.5C22.1466 1.5 27.5 6.36156 27.5 11.8588Z" fill="#FFFDFD"/>
<path d="M27.5 11.8588C27.5 14.8771 25.9993 22.2195 23.496 28.8561C22.2507 32.1576 20.7978 35.1718 19.2343 37.332C17.6105 39.5754 16.1608 40.5 15 40.5C13.8392 40.5 12.3895 39.5754 10.7657 37.332C9.20216 35.1718 7.74932 32.1576 6.50398 28.8561C4.00066 22.2195 2.5 14.8771 2.5 11.8588C2.5 6.36156 7.85339 1.5 15 1.5C22.1466 1.5 27.5 6.36156 27.5 11.8588Z" stroke="#152C5B" stroke-width="3"/>
<path d="M27.5 11.8588C27.5 14.8771 25.9993 22.2195 23.496 28.8561C22.2507 32.1576 20.7978 35.1718 19.2343 37.332C17.6105 39.5754 16.1608 40.5 15 40.5C13.8392 40.5 12.3895 39.5754 10.7657 37.332C9.20216 35.1718 7.74932 32.1576 6.50398 28.8561C4.00066 22.2195 2.5 14.8771 2.5 11.8588C2.5 6.36156 7.85339 1.5 15 1.5C22.1466 1.5 27.5 6.36156 27.5 11.8588Z" stroke="#152C5B" stroke-width="3"/>
<circle cx="15" cy="13" r="4.5" stroke="#FF498B" stroke-width="3"/>
</svg>
