<svg width="48" height="48" viewBox="0 0 48 48" fill="none" xmlns="http://www.w3.org/2000/svg">
<mask id="path-1-inside-1_11_99" fill="white">
<path fill-rule="evenodd" clip-rule="evenodd" d="M18.7932 8C18.0061 8 17.2923 8.46157 16.9693 9.17927L15.25 13H8C3.58172 13 0 16.5817 0 21V35C0 39.4183 3.58172 43 8 43H40C44.4183 43 48 39.4183 48 35V21C48 16.5817 44.4183 13 40 13H33L31.5029 9.25722C31.1992 8.4979 30.4637 8 29.6459 8H18.7932Z"/>
</mask>
<path d="M16.9693 9.17927L14.2336 7.94818V7.94818L16.9693 9.17927ZM15.25 13V16H17.1898L17.9858 14.2311L15.25 13ZM33 13L30.2146 14.1142L30.9689 16H33V13ZM31.5029 9.25722L28.7175 10.3714V10.3714L31.5029 9.25722ZM19.7051 10.4104C19.5436 10.7692 19.1867 11 18.7932 11V5C16.8256 5 15.041 6.15392 14.2336 7.94818L19.7051 10.4104ZM17.9858 14.2311L19.7051 10.4104L14.2336 7.94818L12.5142 11.7689L17.9858 14.2311ZM8 16H15.25V10H8V16ZM3 21C3 18.2386 5.23858 16 8 16V10C1.92487 10 -3 14.9249 -3 21H3ZM3 35V21H-3V35H3ZM8 40C5.23858 40 3 37.7614 3 35H-3C-3 41.0751 1.92487 46 8 46V40ZM40 40H8V46H40V40ZM45 35C45 37.7614 42.7614 40 40 40V46C46.0751 46 51 41.0751 51 35H45ZM45 21V35H51V21H45ZM40 16C42.7614 16 45 18.2386 45 21H51C51 14.9249 46.0751 10 40 10V16ZM33 16H40V10H33V16ZM28.7175 10.3714L30.2146 14.1142L35.7854 11.8858L34.2883 8.14305L28.7175 10.3714ZM29.6459 11C29.237 11 28.8693 10.7511 28.7175 10.3714L34.2883 8.14305C33.529 6.24475 31.6905 5 29.6459 5V11ZM18.7932 11H29.6459V5H18.7932V11Z" fill="#152C5B" mask="url(#path-1-inside-1_11_99)"/>
<circle cx="24" cy="28" r="6.5" stroke="#FF498B" stroke-width="3"/>
<path d="M34 20C39.0238 20 40.0895 20 39.9943 20" stroke="#152C5B" stroke-width="3" stroke-linecap="round" stroke-linejoin="round"/>
</svg>
