<svg width="48" height="48" viewBox="0 0 48 48" fill="none" xmlns="http://www.w3.org/2000/svg">
<path d="M26 1.5C27.3807 1.5 28.5 2.61929 28.5 4L28.5 44C28.5 45.3807 27.3807 46.5 26 46.5L4 46.5C2.61929 46.5 1.5 45.3807 1.5 44L1.5 4C1.5 2.61929 2.61929 1.5 4 1.5L26 1.5Z" stroke="#152C5B" stroke-width="3"/>
<path d="M26 1.5C27.3807 1.5 28.5 2.61929 28.5 4L28.5 44C28.5 45.3807 27.3807 46.5 26 46.5L4 46.5C2.61929 46.5 1.5 45.3807 1.5 44L1.5 4C1.5 2.61929 2.61929 1.5 4 1.5L26 1.5Z" stroke="#152C5B" stroke-width="3"/>
<path d="M23 28C23 21.3016 23 19.8807 23 20.0076" stroke="#FF498B" stroke-width="3" stroke-linecap="round" stroke-linejoin="round"/>
<path d="M12 3C12 39.004 12 46.6413 12 45.9594" stroke="#152C5B" stroke-width="3" stroke-linecap="round" stroke-linejoin="round"/>
</svg>
