<svg width="48" height="48" viewBox="0 0 48 48" fill="none" xmlns="http://www.w3.org/2000/svg">
<rect x="2.5" y="5.5" width="42" height="29" rx="6.5" stroke="#152C5B" stroke-width="3"/>
<rect x="2.5" y="5.5" width="42" height="29" rx="6.5" stroke="#152C5B" stroke-width="3"/>
<path d="M21 36C21 41.8611 21 43.1044 21 42.9934" stroke="#152C5B" stroke-width="3" stroke-linecap="round" stroke-linejoin="round"/>
<path d="M29 36C29 41.8611 29 43.1044 29 42.9934" stroke="#152C5B" stroke-width="3" stroke-linecap="round" stroke-linejoin="round"/>
<path d="M36.5 43C17.242 43 13.1353 43 13.5 43" stroke="#152C5B" stroke-width="3" stroke-linecap="round" stroke-linejoin="round"/>
<path d="M30.25 19.067C30.5833 19.2594 30.5833 19.7406 30.25 19.933L22 24.6962C21.6667 24.8886 21.25 24.648 21.25 24.2631L21.25 14.7369C21.25 14.352 21.6667 14.1114 22 14.3038L30.25 19.067Z" stroke="#FF498B" stroke-width="3" stroke-linecap="round" stroke-linejoin="round"/>
</svg>
