<svg width="48" height="48" viewBox="0 0 48 48" fill="none" xmlns="http://www.w3.org/2000/svg">
<rect x="1.5" y="13.5" width="25" height="33" rx="6.5" stroke="#152C5B" stroke-width="3"/>
<rect x="1.5" y="13.5" width="25" height="33" rx="6.5" stroke="#152C5B" stroke-width="3"/>
<path d="M8.5 4C8.5 2.61929 9.61929 1.5 11 1.5H17C18.3807 1.5 19.5 2.61929 19.5 4V13.5H8.5V4Z" stroke="#152C5B" stroke-width="3"/>
<path d="M8.5 4C8.5 2.61929 9.61929 1.5 11 1.5H17C18.3807 1.5 19.5 2.61929 19.5 4V13.5H8.5V4Z" stroke="#152C5B" stroke-width="3"/>
<path d="M7.5 19C7.5 36.6 7.5 40.3333 7.5 40" stroke="#FF498B" stroke-width="3" stroke-linecap="round" stroke-linejoin="round"/>
<path d="M20 19C20 36.6 20 40.3333 20 40" stroke="#FF498B" stroke-width="3" stroke-linecap="round" stroke-linejoin="round"/>
<path d="M14 26C14 32.6984 14 34.1193 14 33.9924" stroke="#FF498B" stroke-width="3" stroke-linecap="round" stroke-linejoin="round"/>
</svg>
