<svg width="48" height="48" viewBox="0 0 48 48" fill="none" xmlns="http://www.w3.org/2000/svg">
<path d="M4 26.5H20C21.3807 26.5 22.5 27.6193 22.5 29V35C22.5 36.3807 21.3807 37.5 20 37.5H4C2.61929 37.5 1.5 36.3807 1.5 35V29C1.5 27.6193 2.61929 26.5 4 26.5Z" stroke="#152C5B" stroke-width="3"/>
<path d="M4 26.5H20C21.3807 26.5 22.5 27.6193 22.5 29V35C22.5 36.3807 21.3807 37.5 20 37.5H4C2.61929 37.5 1.5 36.3807 1.5 35V29C1.5 27.6193 2.61929 26.5 4 26.5Z" stroke="#152C5B" stroke-width="3"/>
<path d="M18 38C18 44.6984 18 46.1193 18 45.9924" stroke="#152C5B" stroke-width="3" stroke-linecap="round" stroke-linejoin="round"/>
<path d="M12 16C12 23.5357 12 25.1342 12 24.9915" stroke="#152C5B" stroke-width="3" stroke-linecap="round" stroke-linejoin="round"/>
<path d="M17 16C17 19.3492 17 20.0597 17 19.9962" stroke="#152C5B" stroke-width="3" stroke-linecap="round" stroke-linejoin="round"/>
<path d="M6 38C6 44.6984 6 46.1193 6 45.9924" stroke="#152C5B" stroke-width="3" stroke-linecap="round" stroke-linejoin="round"/>
<path d="M6.75701 3.5H18.173C18.4204 3.5 18.6306 3.68097 18.6674 3.92565L20.1712 13.9256C20.2167 14.228 19.9825 14.5 19.6768 14.5H4.50138C4.18085 14.5 3.9431 14.2027 4.01363 13.89L6.26927 3.88998C6.3207 3.66196 6.52326 3.5 6.75701 3.5Z" stroke="#FF498B" stroke-width="3"/>
</svg>
