<svg width="48" height="48" viewBox="0 0 48 48" fill="none" xmlns="http://www.w3.org/2000/svg">
<path d="M42 19.9853C42 20.2247 42 17.6314 42 5.585C42 4.87213 41.6206 4.21218 41.004 3.85431L38.8631 2.61158C38.216 2.23596 37.4134 2.25294 36.7827 2.65561L34 4.43243" stroke="#FF498B" stroke-width="3" stroke-linecap="round" stroke-linejoin="round"/>
<path d="M1.5 24C1.5 22.6193 2.61929 21.5 4 21.5H44C45.3807 21.5 46.5 22.6193 46.5 24V26C46.5 27.3807 45.3807 28.5 44 28.5H4C2.61929 28.5 1.5 27.3807 1.5 26V24Z" stroke="#152C5B" stroke-width="3"/>
<path d="M1.5 24C1.5 22.6193 2.61929 21.5 4 21.5H44C45.3807 21.5 46.5 22.6193 46.5 24V26C46.5 27.3807 45.3807 28.5 44 28.5H4C2.61929 28.5 1.5 27.3807 1.5 26V24Z" stroke="#152C5B" stroke-width="3"/>
<path d="M5.5 29.5H42.5V39C42.5 40.933 40.933 42.5 39 42.5H9C7.067 42.5 5.5 40.933 5.5 39V29.5Z" stroke="#152C5B" stroke-width="3"/>
<path d="M5.5 29.5H42.5V39C42.5 40.933 40.933 42.5 39 42.5H9C7.067 42.5 5.5 40.933 5.5 39V29.5Z" stroke="#152C5B" stroke-width="3"/>
<path d="M37 43C37 45.5119 37 46.0447 37 45.9972" stroke="#152C5B" stroke-width="3" stroke-linecap="round" stroke-linejoin="round"/>
<path d="M11 43C11 45.5119 11 46.0447 11 45.9972" stroke="#152C5B" stroke-width="3" stroke-linecap="round" stroke-linejoin="round"/>
</svg>
