<svg width="48" height="48" viewBox="0 0 48 48" fill="none" xmlns="http://www.w3.org/2000/svg">
<path d="M1.5 9C1.5 7.61929 2.61929 6.5 4 6.5H44C45.3807 6.5 46.5 7.61929 46.5 9V23C46.5 24.3807 45.3807 25.5 44 25.5H4C2.61929 25.5 1.5 24.3807 1.5 23V9Z" stroke="#152C5B" stroke-width="3"/>
<path d="M1.5 9C1.5 7.61929 2.61929 6.5 4 6.5H44C45.3807 6.5 46.5 7.61929 46.5 9V23C46.5 24.3807 45.3807 25.5 44 25.5H4C2.61929 25.5 1.5 24.3807 1.5 23V9Z" stroke="#152C5B" stroke-width="3"/>
<path d="M27.9991 12C21.3014 12.0987 19.8807 12.1196 20.0076 12.1178" stroke="#FF498B" stroke-width="3" stroke-linecap="round" stroke-linejoin="round"/>
<path d="M33 43.0024C33 43.0024 30 39.0024 30 36.0024C30 32.7046 33 29.9063 33 30.0024" stroke="#152C5B" stroke-width="3" stroke-linecap="round" stroke-linejoin="round"/>
<path d="M15 43.0024C15 43.0024 18 39.0024 18 36.0024C18 32.7046 15 29.9063 15 30.0024" stroke="#152C5B" stroke-width="3" stroke-linecap="round" stroke-linejoin="round"/>
<path d="M41 43.0024C41 43.0024 38 39.0024 38 36.0024C38 32.7046 41 29.9063 41 30.0024" stroke="#152C5B" stroke-width="3" stroke-linecap="round" stroke-linejoin="round"/>
<path d="M7 43.0024C7 43.0024 10 39.0024 10 36.0024C10 32.7046 7 29.9063 7 30.0024" stroke="#152C5B" stroke-width="3" stroke-linecap="round" stroke-linejoin="round"/>
<path d="M3 19C39.004 19 46.6413 19 45.9594 19" stroke="#152C5B" stroke-width="3" stroke-linecap="round" stroke-linejoin="round"/>
</svg>
