<svg width="48" height="48" viewBox="0 0 48 48" fill="none" xmlns="http://www.w3.org/2000/svg">
<path d="M6.83489 20.7859C7.27581 19.9922 8.11236 19.5 9.02028 19.5H41.6263C42.7493 19.5 43.7346 20.2488 44.0351 21.3309L45.1462 25.3309C45.5887 26.9239 44.3907 28.5 42.7374 28.5H6.79806C4.89185 28.5 3.68693 26.4522 4.61266 24.7859L6.83489 20.7859Z" stroke="#152C5B" stroke-width="3"/>
<path d="M6.83489 20.7859C7.27581 19.9922 8.11236 19.5 9.02028 19.5H41.6263C42.7493 19.5 43.7346 20.2488 44.0351 21.3309L45.1462 25.3309C45.5887 26.9239 44.3907 28.5 42.7374 28.5H6.79806C4.89185 28.5 3.68693 26.4522 4.61266 24.7859L6.83489 20.7859Z" stroke="#152C5B" stroke-width="3"/>
<mask id="path-2-inside-1_60_98" fill="white">
<path d="M10 46C12.2091 46 14 44.2091 14 42L14 28C14 27.4477 13.5523 27 13 27L7 27C6.44772 27 6 27.4477 6 28L6 42C6 44.2091 7.79086 46 10 46Z"/>
</mask>
<path d="M10 46C12.2091 46 14 44.2091 14 42L14 28C14 27.4477 13.5523 27 13 27L7 27C6.44772 27 6 27.4477 6 28L6 42C6 44.2091 7.79086 46 10 46Z" stroke="#152C5B" stroke-width="6" mask="url(#path-2-inside-1_60_98)"/>
<mask id="path-3-inside-2_60_98" fill="white">
<path d="M40 46C37.7909 46 36 44.2091 36 42L36 28C36 27.4477 36.4477 27 37 27L43 27C43.5523 27 44 27.4477 44 28L44 42C44 44.2091 42.2091 46 40 46Z"/>
</mask>
<path d="M40 46C37.7909 46 36 44.2091 36 42L36 28C36 27.4477 36.4477 27 37 27L43 27C43.5523 27 44 27.4477 44 28L44 42C44 44.2091 42.2091 46 40 46Z" stroke="#152C5B" stroke-width="6" mask="url(#path-3-inside-2_60_98)"/>
<path d="M40 46C37.7909 46 36 44.2091 36 42L36 28C36 27.4477 36.4477 27 37 27L43 27C43.5523 27 44 27.4477 44 28L44 42C44 44.2091 42.2091 46 40 46Z" stroke="#152C5B" stroke-width="6" mask="url(#path-3-inside-2_60_98)"/>
<mask id="path-4-inside-3_60_98" fill="white">
<path d="M40 46C37.7909 46 36 44.2091 36 42L36 28C36 27.4477 36.4477 27 37 27L43 27C43.5523 27 44 27.4477 44 28L44 42C44 44.2091 42.2091 46 40 46Z"/>
</mask>
<path d="M40 46C37.7909 46 36 44.2091 36 42L36 28C36 27.4477 36.4477 27 37 27L43 27C43.5523 27 44 27.4477 44 28L44 42C44 44.2091 42.2091 46 40 46Z" stroke="#152C5B" stroke-width="6" mask="url(#path-4-inside-3_60_98)"/>
<path d="M40 46C37.7909 46 36 44.2091 36 42L36 28C36 27.4477 36.4477 27 37 27L43 27C43.5523 27 44 27.4477 44 28L44 42C44 44.2091 42.2091 46 40 46Z" stroke="#152C5B" stroke-width="6" mask="url(#path-4-inside-3_60_98)"/>
<mask id="path-5-inside-4_60_98" fill="white">
<path d="M40 46C37.7909 46 36 44.2091 36 42L36 28C36 27.4477 36.4477 27 37 27L43 27C43.5523 27 44 27.4477 44 28L44 42C44 44.2091 42.2091 46 40 46Z"/>
</mask>
<path d="M40 46C37.7909 46 36 44.2091 36 42L36 28C36 27.4477 36.4477 27 37 27L43 27C43.5523 27 44 27.4477 44 28L44 42C44 44.2091 42.2091 46 40 46Z" stroke="#152C5B" stroke-width="6" mask="url(#path-5-inside-4_60_98)"/>
<path d="M40 46C37.7909 46 36 44.2091 36 42L36 28C36 27.4477 36.4477 27 37 27L43 27C43.5523 27 44 27.4477 44 28L44 42C44 44.2091 42.2091 46 40 46Z" stroke="#152C5B" stroke-width="6" mask="url(#path-5-inside-4_60_98)"/>
<mask id="path-6-inside-5_60_98" fill="white">
<path d="M40 46C37.7909 46 36 44.2091 36 42L36 28C36 27.4477 36.4477 27 37 27L43 27C43.5523 27 44 27.4477 44 28L44 42C44 44.2091 42.2091 46 40 46Z"/>
</mask>
<path d="M40 46C37.7909 46 36 44.2091 36 42L36 28C36 27.4477 36.4477 27 37 27L43 27C43.5523 27 44 27.4477 44 28L44 42C44 44.2091 42.2091 46 40 46Z" stroke="#152C5B" stroke-width="6" mask="url(#path-6-inside-5_60_98)"/>
<path d="M18 13C18 17.1865 18 18.0746 18 17.9953" stroke="#152C5B" stroke-width="3" stroke-linecap="round" stroke-linejoin="round"/>
<path d="M33 13C33 17.1865 33 18.0746 33 17.9953" stroke="#152C5B" stroke-width="3" stroke-linecap="round" stroke-linejoin="round"/>
<mask id="path-9-inside-6_60_98" fill="white">
<path d="M18 13C15.7909 13 14 11.2091 14 9L14 4C14 3.44772 14.4477 3 15 3L21 3C21.5523 3 22 3.44772 22 4L22 9C22 11.2091 20.2091 13 18 13Z"/>
</mask>
<path d="M18 13C15.7909 13 14 11.2091 14 9L14 4C14 3.44772 14.4477 3 15 3L21 3C21.5523 3 22 3.44772 22 4L22 9C22 11.2091 20.2091 13 18 13Z" stroke="#FF498B" stroke-width="6" mask="url(#path-9-inside-6_60_98)"/>
<mask id="path-10-inside-7_60_98" fill="white">
<path d="M33 13C30.7909 13 29 11.2091 29 9L29 4C29 3.44772 29.4477 3 30 3L36 3C36.5523 3 37 3.44772 37 4L37 9C37 11.2091 35.2091 13 33 13Z"/>
</mask>
<path d="M33 13C30.7909 13 29 11.2091 29 9L29 4C29 3.44772 29.4477 3 30 3L36 3C36.5523 3 37 3.44772 37 4L37 9C37 11.2091 35.2091 13 33 13Z" stroke="#FF498B" stroke-width="6" mask="url(#path-10-inside-7_60_98)"/>
</svg>
